<?xml version="1.0" standalone="no"?>
<!DOCTYPE svg PUBLIC "-//W3C//DTD SVG 20010904//EN"
 "http://www.w3.org/TR/2001/REC-SVG-20010904/DTD/svg10.dtd">
<svg version="1.0" xmlns="http://www.w3.org/2000/svg"
 width="75.000000pt" height="75.000000pt" viewBox="0 0 75.000000 75.000000"
 preserveAspectRatio="xMidYMid meet">
<metadata>
Created by potrace 1.11, written by Peter Selinger 2001-2013
</metadata>
<g transform="translate(0.000000,75.000000) scale(0.100000,-0.100000)"
fill="#000000" stroke="none">
<path d="M150 474 c0 -4 24 -59 52 -122 l52 -115 53 109 c28 60 52 115 52 122
1 6 -10 12 -24 12 -21 0 -29 -10 -53 -62 l-28 -62 -27 62 c-22 53 -30 62 -52
62 -14 0 -25 -3 -25 -6z"/>
<path d="M396 464 c-9 -8 -16 -24 -16 -34 0 -21 25 -50 43 -50 8 0 7 -3 -2 -9
-14 -9 -7 -31 10 -31 14 0 49 62 49 87 0 26 -25 53 -50 53 -10 0 -26 -7 -34
-16z m49 -24 c3 -6 -1 -13 -10 -16 -19 -8 -30 0 -20 15 8 14 22 14 30 1z"/>
<path d="M518 466 c-21 -15 -24 -36 -5 -36 8 0 12 -15 12 -42 0 -33 4 -43 18
-46 15 -3 17 5 17 67 0 74 -7 84 -42 57z"/>
<path d="M400 260 c0 -18 7 -20 85 -20 78 0 85 2 85 20 0 18 -7 20 -85 20 -78
0 -85 -2 -85 -20z"/>
</g>
</svg>
